<?xml version="1.0" encoding="UTF-8" standalone="no"?>
<!-- Created with Inkscape (http://www.inkscape.org/) -->

<svg
   width="200mm"
   height="200mm"
   viewBox="0 0 200 200"
   version="1.1"
   id="svg1"
   xml:space="preserve"
   xmlns="http://www.w3.org/2000/svg"
   xmlns:svg="http://www.w3.org/2000/svg"><defs
     id="defs1" /><g
     id="layer1"
     transform="translate(-12.881041,-25.394052)"><path
       style="fill:#006ff7;fill-opacity:1"
       d="m 109.36542,212.26255 9.57031,0.17304 4.29687,-0.30556 4.29688,-0.30556 5.46875,-0.46706 5.46875,-0.46705 7.22656,-1.36223 7.22656,-1.36222 5.27344,-1.31881 5.27344,-1.3188 3.51562,-1.23957 3.51563,-1.23956 2.82779,-1.30019 2.8278,-1.30018 3.2607,-2.12543 3.26069,-2.12543 2.76778,-2.76778 2.76779,-2.76778 1.24133,-1.80422 1.24134,-1.80422 1.28219,-2.8026 1.28219,-2.8026 0.61637,-2.53906 0.61637,-2.53906 0.40618,-3.31007 0.40617,-3.31006 v -5.81162 -5.81161 l -2.83203,0.26693 -2.83204,0.26694 -3.71093,0.52821 -3.71094,0.52822 -5.3702,0.47292 -5.37019,0.47292 -0.35947,0.43313 -0.35947,0.43313 -0.12971,5.27204 -0.12971,5.27204 -0.89897,1.26036 -0.89898,1.26036 -2.03071,0.61227 -2.03072,0.61227 -7.61718,0.34405 -7.61719,0.34405 -4.10156,0.64329 -4.10157,0.64329 -3.90625,-0.13046 -3.90625,-0.13046 -1.48205,-0.7314 -1.48205,-0.73141 -0.65043,-1.21685 -0.65043,-1.21686 -0.21127,-5.07812 -0.21127,-5.07813 H 112.68573 96.670105 l -0.195313,5.29246 -0.195312,5.29246 -0.714046,1.08793 -0.714046,1.08793 -1.629704,0.73994 -1.629704,0.73993 -3.90625,0.006 -3.90625,0.006 -3.710938,-0.59759 -3.710937,-0.59759 -7.685967,-0.35338 -7.685968,-0.35338 -1.540381,-0.41478 -1.540381,-0.41478 -1.05673,-0.83123 -1.056729,-0.83122 -0.417859,-1.02292 -0.41786,-1.02292 -0.236562,-5.27344 -0.236563,-5.27343 -2.148438,-0.24071 -2.148437,-0.2407 -9.444611,-1.08138 -9.444611,-1.08139 -0.673756,0.25855 -0.673757,0.25854 0.234348,7.11823 0.234348,7.11823 0.633608,3.28529 0.633608,3.28529 0.96708,2.5693 0.967079,2.56929 1.818319,2.93448 1.818319,2.93448 3.535326,3.51562 3.535325,3.51563 3.482907,2.04693 3.482907,2.04693 4.128662,1.59473 4.128662,1.59473 3.325931,0.964 3.325931,0.964 4.101562,0.9426 4.101563,0.94261 5.46875,1.0114 5.46875,1.0114 7.226562,0.7529 7.226563,0.7529 z m 28.25056,-41.58684 0.0697,-0.0308 0.39062,-0.14006 0.39063,-0.14007 5.46875,-0.44338 5.46875,-0.44337 6.78586,-0.51387 6.78586,-0.51387 0.33707,-0.532 0.33706,-0.53201 0.006,-5.1574 0.006,-5.1574 0.4577,-1.00454 0.4577,-1.00454 1.27056,-0.78524 1.27056,-0.78525 5.59596,-0.34412 5.59596,-0.34411 7.61719,-0.63736 7.61718,-0.63736 0.85145,-0.35124 0.85145,-0.35123 0.0121,-25.89979 0.012,-25.899795 0.39421,-3.710937 0.39422,-3.710938 1.39732,-4.408583 1.39731,-4.408584 1.93482,-5.059737 1.93481,-5.059738 V 71.333024 69.9977 l -2.00104,-1.799112 -2.00105,-1.799113 -4.34661,-3.281617 -4.34661,-3.281616 -5.13697,-3.646876 -5.13698,-3.646876 -3.632,-2.648746 -3.632,-2.648745 -0.94716,-0.237722 -0.94716,-0.237722 -1.61199,0.788891 -1.61199,0.78889 -5.07813,3.758815 -5.07812,3.758815 -1.58817,0.780168 -1.58818,0.780169 -2.02255,0 -2.02256,0 -5.05446,-0.98554 -5.05445,-0.98554 -1.29575,-0.542852 -1.29576,-0.542852 -0.83321,-0.913014 -0.83321,-0.913015 -0.5874,-1.171875 -0.5874,-1.171875 -1.63123,-5.200279 -1.63123,-5.200279 -0.75675,-0.756752 -0.75675,-0.756752 -0.48828,-0.02118 -0.48829,-0.02118 -16.01562,-0.0047 -16.015625,-0.0047 -0.494023,0.02591 -0.494023,0.02591 -0.776297,1.269531 -0.776298,1.269531 -1.558203,4.882813 -1.558203,4.882812 -0.882414,1.527965 -0.882414,1.527964 -1.421817,0.734097 -1.421817,0.734096 -4.437558,1.117459 -4.437558,1.117459 -2.587163,0.273961 -2.587164,0.273961 -1.709711,-0.810549 -1.709712,-0.810549 -4.296875,-3.144954 -4.296875,-3.144954 -2.306655,-1.553447 -2.306655,-1.553446 -0.707757,0 -0.707758,0 -3.235588,2.040097 -3.235587,2.040097 -3.90625,2.838506 -3.90625,2.838506 -4.6875,3.519321 -4.6875,3.519322 -3.813961,2.981238 -3.813961,2.981238 -0.259923,1.023181 -0.259923,1.023181 1.477876,4.101563 1.477875,4.101562 1.480882,4.104211 1.480882,4.104211 1.060385,4.684851 1.060385,4.684852 -0.04534,22.851565 -0.04534,22.85156 -0.213721,3.51563 -0.213721,3.51562 0.379303,0.55697 0.379302,0.55696 5.403247,0.51348 5.403247,0.51348 8.333343,0.59652 8.333343,0.59652 1.156588,0.59809 1.156587,0.5981 0.762516,1.25056 0.762515,1.25057 0.0015,5.34804 0.0015,5.34804 0.336242,0.20781 0.336242,0.20781 4.448914,0.38612 4.448915,0.38612 7.8125,0.623 7.8125,0.623 0.390625,0.0243 0.390625,0.0243 0.488281,-0.0463 0.488281,-0.0463 v -4.87491 -4.87491 l 0.61906,-1.54718 0.619059,-1.54718 1.041097,-0.68307 1.041097,-0.68306 19.92187,-0.047 19.92188,-0.047 1.20395,0.4642 1.20394,0.46421 0.84684,1.07657 0.84683,1.07658 v 5.19286 5.19285 l 0.61384,0.61384 0.61384,0.61384 z m 16.44043,-33.57218 -1.59808,0.009 -1.8272,-0.54991 -1.82721,-0.5499 -2.00416,-1.28607 -2.00416,-1.28607 -1.66744,-2.26506 -1.66744,-2.26505 -0.80664,-2.44194 -0.80663,-2.44193 -0.44043,-2.99831 -0.44043,-2.99831 0.65222,-3.82632 0.65222,-3.82633 1.1976,-2.24693 1.1976,-2.24693 2.09626,-1.98256 2.09627,-1.98256 2.64005,-1.23836 2.64004,-1.238372 2.79634,0.02215 2.79633,0.02215 2.14175,1.04786 2.14176,1.04787 1.58271,1.71704 1.58271,1.71703 1.22092,2.41864 1.22093,2.41863 0.58628,2.98524 0.58629,2.98524 -0.25719,3.11688 -0.2572,3.11689 -0.95293,3.01657 -0.95294,3.01657 -1.64913,2.43623 -1.64913,2.43622 -1.40353,1.11698 -1.40354,1.11698 -2.3074,0.9486 -2.3074,0.9486 z m -82.581618,-0.11923 -2.148437,-0.11535 -2.430615,-1.09845 -2.430614,-1.09845 -1.901108,-2.01014 -1.901108,-2.01014 -1.20303,-2.5312 -1.20303,-2.5312 -0.617591,-2.40014 -0.617592,-2.40013 v -3.27952 -3.27951 l 0.594383,-2.32817 0.594382,-2.32816 1.141941,-2.34375 1.14194,-2.34375 1.646958,-1.71059 1.646958,-1.7106 2.183126,-1.00742 2.183125,-1.007417 2.812654,0.01813 2.812655,0.01813 2.589171,1.274644 2.589171,1.27465 2.031148,2.06386 2.031149,2.06386 1.078927,1.98234 1.078928,1.98235 0.57013,2.9798 0.570129,2.9798 -0.0058,2.60235 -0.0058,2.60236 -0.582352,2.47022 -0.582351,2.47022 -1.047789,2.21484 -1.047789,2.21485 -1.772439,1.89488 -1.772438,1.89488 -1.550758,0.79114 -1.550758,0.79113 -1.388545,0.5325 -1.388546,0.53249 z"
       id="path1" /></g></svg>
